<svg width="24" height="24" viewBox="0 0 24 24" fill="none" xmlns="http://www.w3.org/2000/svg">
<path fill-rule="evenodd" clip-rule="evenodd" d="M2.43165 12.0898C2.43165 10.389 2.84021 8.68454 3.68687 7.28062C4.03262 6.70732 4.45603 6.03496 4.93593 5.56484C5.22856 5.27816 5.06524 5.37578 5.38285 5.11332C5.44838 5.05914 5.48341 5.01902 5.54258 4.9586C7.07035 3.39936 9.75891 2.43165 11.9102 2.43165C13.611 2.43165 15.3155 2.84021 16.7194 3.68687C17.377 4.08345 17.5175 4.1545 18.1233 4.66384C18.3586 4.86168 18.6925 5.14789 18.8867 5.38285C19.0769 5.61304 19.2983 5.79553 19.5791 6.17286L20.2798 7.22408C20.4436 7.49775 20.5541 7.72425 20.7004 8.01637C21.5445 9.70222 21.8151 12.2206 21.3171 14.1745C20.9236 15.7183 20.3443 16.9243 19.3362 18.1233L18.6172 18.8867C18.387 19.0769 18.2045 19.2983 17.8271 19.5791C16.0881 20.8734 14.3015 21.5684 11.9102 21.5684C9.6863 21.5684 7.54033 20.7349 5.87672 19.3362L5.23207 18.7679C4.6675 18.2034 4.13118 17.4629 3.72017 16.7759C2.95731 15.5009 2.43165 13.8391 2.43165 12.0898ZM11.5024 0.5H12.3366C13.3226 0.53748 14.3189 0.706347 15.3691 0.994134C15.5523 1.04432 15.6918 1.0906 15.8807 1.15645C17.0278 1.55635 18.0715 2.17726 19.0331 2.90052C19.8832 3.53999 20.8395 4.5295 21.4242 5.40585L21.712 5.83684C21.9633 6.22866 22.2725 6.74297 22.4478 7.1674C22.5914 7.51493 22.7299 7.78597 22.8547 8.15309C23.2487 9.31163 23.4579 10.4081 23.5 11.5024V12.3366C23.4625 13.3226 23.2937 14.3189 23.0059 15.3691C22.7109 16.4455 22.2423 17.2926 21.6775 18.2185C21.419 18.6422 21.1046 19.0265 20.7984 19.4058C20.664 19.5724 20.597 19.63 20.456 19.7822C20.3317 19.9163 20.282 20.003 20.1425 20.1425C19.9976 20.2874 19.897 20.3452 19.7594 20.4781C19.217 21.0019 18.4205 21.5856 17.7478 21.9704C17.1801 22.2951 16.4757 22.6409 15.8469 22.8547C15.5111 22.9689 15.1006 23.1066 14.7742 23.1745C13.3797 23.4646 13.1444 23.5 11.6856 23.5C8.95839 23.5 6.21061 22.3022 4.21784 20.456C4.08369 20.3317 3.99698 20.282 3.8575 20.1425C3.25957 19.5445 2.46744 18.5132 2.02959 17.7478C1.53548 16.884 1.02952 15.7552 0.82545 14.7742C0.535363 13.3797 0.5 13.1444 0.5 11.6856C0.5 10.7399 0.662215 9.98153 0.833082 9.18856C1.09428 7.97648 1.68494 6.82663 2.3225 5.78148C2.42794 5.60865 2.48625 5.54143 2.59352 5.37868C2.71209 5.1988 2.77633 5.13204 2.90052 4.96693C3.01475 4.81507 3.09219 4.72971 3.2016 4.59418L3.8575 3.8575C4.98827 2.72675 6.64232 1.65907 8.15309 1.14528C9.31163 0.751275 10.4081 0.542066 11.5024 0.5Z" fill="white"/>
<path fill-rule="evenodd" clip-rule="evenodd" d="M11.0566 12.0449C11.0566 10.7274 12.9434 10.7274 12.9434 12.0449C12.9434 13.2225 11.0566 13.2225 11.0566 12.0449ZM5.75586 17.7949C5.75586 18.0208 5.97923 18.2442 6.20508 18.2442C6.56129 18.2442 9.88646 16.4933 10.278 16.2975C10.4701 16.2015 14.0916 14.4261 14.2588 14.2588C14.3742 14.1435 15.2029 12.4673 15.2943 12.2845L17.7949 7.2832C17.911 7.05105 18.2442 6.49094 18.2442 6.20508C18.2442 5.97923 18.0208 5.75586 17.7949 5.75586C17.5106 5.75586 16.9893 6.06886 16.7467 6.1901L10.7272 9.19987C10.5334 9.29679 10.4111 9.35646 10.2291 9.46543C9.52702 9.88568 9.89573 9.48928 9.48239 10.2011C9.38607 10.367 9.30511 10.5166 9.21485 10.6973L6.69922 15.7285C6.51849 16.09 5.75586 17.489 5.75586 17.7949Z" fill="white"/>
</svg>
