<svg width="24" height="24" viewBox="0 0 24 24" fill="none" xmlns="http://www.w3.org/2000/svg">
<path d="M20.4 22.7998H14.6001C14.2819 22.7998 13.9766 22.6734 13.7516 22.4484C13.5266 22.2233 13.4001 21.9181 13.4001 21.5999V18C13.4001 17.6817 13.2737 17.3765 13.0487 17.1515C12.8236 16.9265 12.5184 16.8 12.2001 16.8H11.8002C11.4819 16.8 11.1767 16.9265 10.9517 17.1515C10.7266 17.3765 10.6002 17.6817 10.6002 18V21.5999C10.6002 21.9181 10.4738 22.2233 10.2487 22.4484C10.0237 22.6734 9.71847 22.7998 9.40022 22.7998H3.60029C3.28203 22.7998 2.97681 22.6734 2.75177 22.4484C2.52673 22.2233 2.40031 21.9181 2.40031 21.5999V9.86425C2.40031 9.546 2.52673 9.24078 2.75177 9.01575C2.97681 8.79071 3.28203 8.66429 3.60029 8.66429C3.91854 8.66429 4.22376 8.79071 4.4488 9.01575C4.67384 9.24078 4.80027 9.546 4.80027 9.86425V20.3999H8.20024V18C8.20024 17.0452 8.57951 16.1296 9.25463 15.4545C9.92976 14.7794 10.8454 14.4001 11.8002 14.4001H12.2001C13.1549 14.4001 14.0706 14.7794 14.7457 15.4545C15.4208 16.1296 15.8001 17.0452 15.8001 18V20.3999H19.2001V9.86425C19.2001 9.546 19.3265 9.24078 19.5515 9.01575C19.7766 8.79071 20.0818 8.66429 20.4 8.66429C20.7183 8.66429 21.0235 8.79071 21.2486 9.01575C21.4736 9.24078 21.6 9.546 21.6 9.86425V21.5999C21.6 21.9181 21.4736 22.2233 21.2486 22.4484C21.0235 22.6734 20.7183 22.7998 20.4 22.7998Z" fill="white"/>
<path d="M22.7998 13.1998C22.5056 13.1998 22.2216 13.0918 22.0018 12.8962L12 4.00565L1.99811 12.8962C1.8804 13.001 1.74319 13.0815 1.59434 13.1333C1.44548 13.1851 1.28788 13.207 1.13054 13.1979C0.973207 13.1888 0.819211 13.1487 0.677346 13.0801C0.535482 13.0114 0.408529 12.9155 0.303736 12.7978C0.198943 12.6801 0.118361 12.5429 0.0665925 12.394C0.0148237 12.2452 -0.00711845 12.0876 0.0020187 11.9302C0.0111559 11.7729 0.0511933 11.6189 0.119845 11.477C0.188497 11.3352 0.284419 11.2082 0.402135 11.1034L11.202 1.50373C11.4217 1.30806 11.7057 1.19995 12 1.19995C12.2942 1.19995 12.5782 1.30806 12.798 1.50373L23.5978 11.1034C23.7795 11.2652 23.9078 11.4783 23.9656 11.7147C24.0234 11.951 24.0081 12.1993 23.9215 12.4267C23.8349 12.6541 23.6813 12.8498 23.481 12.9878C23.2807 13.1259 23.0431 13.1998 22.7998 13.1998Z" fill="white"/>
</svg>
