<svg width="28" height="28" viewBox="0 0 28 28" fill="none" xmlns="http://www.w3.org/2000/svg">
<g opacity="0.75">
<path d="M8.83729 13.3553C8.12515 13.3553 7.54782 12.7779 7.54782 12.0658C7.54782 11.3536 8.12515 10.7763 8.83729 10.7763H19.1531C19.8653 10.7763 20.4426 11.3536 20.4426 12.0658C20.4426 12.7779 19.8653 13.3553 19.1531 13.3553H8.83729ZM8.83729 18.5132C8.12515 18.5132 7.54782 17.9359 7.54782 17.2237C7.54782 16.5115 8.12515 15.9342 8.83729 15.9342H12.7057C13.4179 15.9342 13.9952 16.5115 13.9952 17.2237C13.9952 17.9359 13.4179 18.5132 12.7057 18.5132H8.83729ZM26.895 14C26.895 17.5607 25.4517 20.7844 23.1181 23.1179C20.7846 25.4515 17.5609 26.8948 14.0002 26.8948H2.39587C1.68373 26.8948 1.10639 26.3175 1.10639 25.6053C1.10639 25.3944 1.15703 25.1953 1.24681 25.0196C1.50645 24.3781 2.9446 20.7265 2.44831 19.7281C2.01188 18.8501 1.67294 17.918 1.44555 16.946C1.22312 15.9951 1.10547 15.0087 1.10547 14C1.10547 10.4393 2.5488 7.21565 4.88236 4.88212C7.21589 2.54856 10.4396 1.10522 14.0002 1.10522C17.5609 1.10522 20.7846 2.54856 23.1181 4.8821C25.4517 7.21563 26.895 10.4393 26.895 14ZM21.2947 21.2945C23.1614 19.4278 24.3161 16.8488 24.3161 14C24.3161 11.1512 23.1614 8.57224 21.2947 6.70553C19.428 4.8388 16.849 3.68419 14.0002 3.68419C11.1515 3.68419 8.5725 4.8388 6.70579 6.70554C4.83905 8.57225 3.68444 11.1512 3.68444 14C3.68444 14.8175 3.77769 15.608 3.954 16.3617C4.13716 17.1447 4.40797 17.891 4.75528 18.5897C5.42595 19.939 4.79075 22.5571 4.22649 24.3158H14.0002C16.849 24.3158 19.428 23.1612 21.2947 21.2945Z" fill="white"/>
</g>
</svg>
