<svg width="24" height="24" viewBox="0 0 24 24" fill="none" xmlns="http://www.w3.org/2000/svg">
<path fill-rule="evenodd" clip-rule="evenodd" d="M8.45876 19.269H6.63379L7.83731 9.26385C7.91358 8.66861 7.91947 8.19283 8.22083 7.78299C8.47107 7.44268 8.9322 7.1669 9.52106 7.1669H14.3423C14.8276 7.1669 15.2482 7.36963 15.5178 7.69235C15.5837 7.77115 15.7216 7.95225 15.7314 8.06728C15.6033 8.00751 15.2765 7.96136 15.0777 7.96136H11.0464C10.5383 7.96136 10.0938 8.2561 9.89632 8.56452C9.65119 8.94734 9.64829 9.45027 9.58057 9.97885C9.44998 10.9981 9.34555 12.1102 9.20616 13.084C9.02907 14.321 8.9187 15.6971 8.74311 16.9238L8.45876 19.269ZM3.61035 20.0105V21.7583C3.61035 22.1744 3.96888 22.4998 4.40027 22.4998H19.4358C19.8838 22.4998 20.2257 22.1674 20.2257 21.7318V20.037C20.2257 19.667 19.9899 19.4075 19.6967 19.3067C19.2645 19.1582 18.9331 19.4201 18.8884 19.1657C18.8717 19.0707 18.8705 18.9886 18.8555 18.8799C18.6082 17.0809 18.4115 15.0734 18.1639 13.2761L17.8855 11.031C17.805 10.3539 17.5826 8.24374 17.4075 7.73535C17.2497 7.27724 17.0067 6.8993 16.6913 6.5514C16.5786 6.42704 16.4758 6.3556 16.3509 6.24685C15.9691 5.91445 15.1933 5.55151 14.4784 5.55151H9.41211C9.0351 5.55151 8.63669 5.66501 8.35369 5.76714C7.75945 5.98159 7.28718 6.36853 6.9021 6.84516C6.24356 7.66025 6.21527 8.79369 6.09132 9.84379C6.00201 10.6005 5.90411 11.3355 5.81433 12.0903L4.98015 18.8265C4.96806 18.9206 4.95803 19.0223 4.95137 19.0898C4.93669 19.2384 4.97887 19.2653 4.81229 19.2724C4.60247 19.2814 4.3492 19.2471 4.18073 19.294C3.87745 19.3783 3.61035 19.6375 3.61035 20.0105Z" fill="white"/>
<path fill-rule="evenodd" clip-rule="evenodd" d="M1.10449 12.8075C1.10449 13.2799 1.48398 13.6284 1.97613 13.6284C2.25657 13.6284 3.18387 13.1208 3.48331 12.9752L4.22613 12.6381C4.57765 12.4329 4.70991 12.0135 4.55355 11.6258C4.41104 11.2724 4.07977 11.1392 3.69214 11.1392C3.39675 11.1392 2.464 11.6435 2.19402 11.7747C1.72867 12.0009 1.10449 12.1745 1.10449 12.8075Z" fill="white"/>
<path fill-rule="evenodd" clip-rule="evenodd" d="M19.3813 7.14038C19.3813 7.49011 19.5818 7.77745 19.8709 7.90903C20.2956 8.10228 20.641 7.8786 20.9975 7.70532L22.1052 7.16685C22.417 7.01479 22.8951 6.89796 22.8951 6.29297C22.8951 5.881 22.5687 5.5565 22.2101 5.50119C21.7325 5.42753 21.0843 5.83587 20.5798 6.08111C20.2502 6.24133 19.8638 6.36382 19.6053 6.61667C19.4875 6.73189 19.3813 6.91969 19.3813 7.14038Z" fill="white"/>
<path fill-rule="evenodd" clip-rule="evenodd" d="M19.354 11.9071C19.354 12.6167 19.7452 12.6931 20.4163 13.0194C20.7481 13.1807 21.5408 13.6285 21.8872 13.6285C22.7205 13.6285 23.0223 12.5739 22.3727 12.1501C22.1518 12.0061 21.3077 11.6122 21.0065 11.4658C20.6012 11.2688 20.5393 11.1921 20.0894 11.1921C19.7384 11.1921 19.354 11.5659 19.354 11.9071Z" fill="white"/>
<path fill-rule="evenodd" clip-rule="evenodd" d="M1.10449 6.38654C1.11016 6.64482 1.16133 6.87221 1.53132 7.06967C1.75465 7.18883 1.97321 7.2846 2.20311 7.39636C2.43184 7.50754 2.62814 7.60297 2.85683 7.71414C3.28776 7.92362 3.71451 8.18853 4.20378 7.74374C4.50683 7.46823 4.54146 6.93702 4.25815 6.64306C4.09735 6.47621 4.05574 6.46967 3.83741 6.36357L2.42104 5.67503C2.224 5.57867 2.1208 5.52572 1.88647 5.54342C1.63257 5.56259 1.50844 5.59751 1.36923 5.7294C1.25224 5.84026 1.10449 5.976 1.10449 6.18704V6.38654Z" fill="white"/>
<path fill-rule="evenodd" clip-rule="evenodd" d="M6.08936 2.26773C6.08936 2.62079 6.22896 2.77752 6.37989 3.071L7.07682 4.40604C7.52254 5.01547 8.59528 4.80769 8.59528 3.88311C8.59528 3.61358 8.13103 2.82152 7.98695 2.54138C7.79783 2.17363 7.57227 1.49976 7.0427 1.49976C6.7712 1.49976 6.54958 1.51337 6.32646 1.73028C6.20858 1.8449 6.08936 2.04717 6.08936 2.26773Z" fill="white"/>
<path fill-rule="evenodd" clip-rule="evenodd" d="M15.2413 3.83015C15.2413 4.05847 15.2203 4.12881 15.3312 4.32537C15.4701 4.5713 15.753 4.75701 16.0313 4.75701C16.7044 4.75701 16.873 4.20609 17.1026 3.75952C17.2748 3.42472 17.7473 2.63783 17.7473 2.2942C17.7473 1.82683 17.3639 1.52216 16.9523 1.49976H16.8545C16.6207 1.51268 16.387 1.6187 16.2171 1.8393L15.541 3.14163C15.4677 3.28413 15.2413 3.65969 15.2413 3.83015Z" fill="white"/>
</svg>
