<svg width="24" height="24" viewBox="0 0 24 24" fill="none" xmlns="http://www.w3.org/2000/svg">
<path fill-rule="evenodd" clip-rule="evenodd" d="M12 14.75C18.5 14.75 23 16.5925 23 20.25V22C23 22.5523 22.5523 23 22 23H2C1.44772 23 1 22.5523 1 22V20.25C1 16.5925 5.5 14.75 12 14.75ZM12 17.5C6.02547 17.5 4.33106 18.9869 3.85059 19.9961C3.79243 20.1183 3.8882 20.2497 4.02344 20.25H19.9863C20.1187 20.2497 20.2136 20.1236 20.1592 20.0029C19.7078 19.0025 17.9822 17.5 12 17.5Z" fill="white"/>
<path fill-rule="evenodd" clip-rule="evenodd" d="M12 1C15.0387 1 17.5 3.46125 17.5 6.5C17.5 9.53875 15.0387 12 12 12C8.96125 12 6.5 9.53875 6.5 6.5C6.5 3.46125 8.96125 1 12 1ZM12 3.75C10.4875 3.75 9.25 4.9875 9.25 6.5C9.25 8.0125 10.4875 9.25 12 9.25C13.5125 9.25 14.75 8.0125 14.75 6.5C14.75 4.9875 13.5125 3.75 12 3.75Z" fill="white"/>
</svg>
