<svg width="12" height="12" viewBox="0 0 12 12" fill="none" xmlns="http://www.w3.org/2000/svg">
<g clip-path="url(#clip0_266_88)">
<path fill-rule="evenodd" clip-rule="evenodd" d="M11.0091 7.28858L7.28972 11.0083C7.1648 11.1328 7.01657 11.2314 6.85351 11.2987C6.69045 11.3659 6.51574 11.4003 6.33937 11.4C6.163 11.3997 5.98843 11.3646 5.82561 11.2968C5.66279 11.229 5.51493 11.1298 5.39046 11.0048L1.29296 6.90804C0.883359 6.46554 0.643717 5.89227 0.61655 5.2899L0.600103 1.94389C0.599605 1.76721 0.634059 1.59217 0.701462 1.42885C0.768865 1.26553 0.867894 1.11714 0.992858 0.992236C1.11782 0.867336 1.26624 0.768369 1.4296 0.701049C1.59295 0.633729 1.768 0.599395 1.94468 0.599983L5.29 0.617141C5.89323 0.6423 6.46771 0.881759 6.91021 1.2925L11.0074 5.38929C11.2587 5.64131 11.4 5.98266 11.4003 6.3386C11.4007 6.69454 11.26 7.03611 11.0091 7.28858ZM10.0567 6.3355L10.054 6.33894L5.95783 2.24215C5.76468 2.08523 5.53024 1.98757 5.2828 1.961L1.94501 1.94389L1.96181 5.28304C1.98726 5.53092 2.08517 5.76581 2.24329 5.9584L6.33975 10.0552H6.33734C6.34077 10.0518 6.34077 10.0518 6.34077 10.0552L10.055 6.33894C10.0529 6.33894 10.0529 6.33893 10.055 6.3355H10.0567ZM3.97491 5.32418C3.7082 5.32404 3.44751 5.24484 3.22579 5.0966C3.00407 4.94836 2.83127 4.73771 2.72922 4.49129C2.62717 4.24488 2.60046 3.97374 2.65245 3.71214C2.70444 3.45055 2.83281 3.21025 3.02133 3.02159C3.20985 2.83292 3.45006 2.70438 3.71161 2.65219C3.97317 2.6 4.24433 2.62649 4.49083 2.72835C4.73732 2.83021 4.94808 3.00287 5.09649 3.22447C5.2449 3.44608 5.32429 3.7067 5.32463 3.97341C5.32481 4.15075 5.29002 4.32639 5.22227 4.49029C5.15451 4.65418 5.05512 4.80312 4.92976 4.92858C4.80441 5.05403 4.65557 5.15356 4.49173 5.22144C4.32788 5.28931 4.15226 5.32422 3.97491 5.32418Z" fill="#FFC701"/>
</g>
<defs>
<clipPath id="clip0_266_88">
<rect width="12" height="12" fill="white"/>
</clipPath>
</defs>
</svg>
