<svg width="12" height="12" viewBox="0 0 12 12" fill="none" xmlns="http://www.w3.org/2000/svg">
<path fill-rule="evenodd" clip-rule="evenodd" d="M9.93733 11.0079C9.81377 11.1335 9.66677 11.2329 9.50492 11.3002C9.34307 11.3675 9.16962 11.4015 8.99469 11.4001H3.00428C2.82887 11.4004 2.65513 11.3656 2.49307 11.2975C2.331 11.2294 2.18384 11.1295 2.06006 11.0034C1.93628 10.8774 1.83833 10.7277 1.77188 10.563C1.70543 10.3984 1.67178 10.222 1.67288 10.0441V1.95607C1.67221 1.77828 1.70616 1.60209 1.77276 1.43763C1.83937 1.27318 1.93733 1.12368 2.06102 0.997705C2.18471 0.871731 2.33171 0.771753 2.49358 0.703526C2.65544 0.635299 2.82899 0.600145 3.00428 0.600098H7.33089C7.71822 0.610472 8.08808 0.76583 8.36927 1.03622L9.89361 2.58272C10.1604 2.86901 10.3146 3.24444 10.3272 3.63816V10.0514C10.3275 10.229 10.2932 10.405 10.2263 10.5691C10.1594 10.7333 10.0612 10.8824 9.93733 11.0079ZM7.66365 2.22726V3.30099H8.72191L7.66365 2.22726ZM8.99505 4.64963H7.66365C7.31079 4.64982 6.97231 4.50788 6.72263 4.25497C6.47295 4.00207 6.33253 3.6589 6.33225 3.30099V1.94873C5.05432 1.94873 3.00428 1.94874 3.00428 1.9524V10.0514H8.99469L8.99505 4.64963ZM4.33424 3.30099H4.99976C5.17607 3.30099 5.34517 3.37204 5.46984 3.4985C5.59452 3.62496 5.66456 3.79649 5.66456 3.97533C5.66456 4.15417 5.59452 4.32566 5.46984 4.45212C5.34517 4.57858 5.17607 4.64963 4.99976 4.64963H4.33532C4.24802 4.64963 4.16157 4.6322 4.08091 4.59832C4.00026 4.56443 3.92697 4.51474 3.86524 4.45212C3.80351 4.38951 3.75454 4.31518 3.72113 4.23337C3.68772 4.15156 3.67052 4.06388 3.67052 3.97533C3.67052 3.88678 3.68772 3.79907 3.72113 3.71725C3.75454 3.63544 3.80351 3.56111 3.86524 3.4985C3.92697 3.43588 4.00026 3.38624 4.08091 3.35235C4.16157 3.31846 4.24802 3.30099 4.33532 3.30099H4.33424ZM4.33424 5.32392H7.66256C7.83936 5.32392 8.00891 5.39517 8.13393 5.52197C8.25894 5.64877 8.32917 5.82077 8.32917 6.0001C8.32917 6.17942 8.25894 6.35138 8.13393 6.47818C8.00891 6.60498 7.83936 6.67623 7.66256 6.67623H4.33532C4.15853 6.67623 3.98898 6.60498 3.86396 6.47818C3.73895 6.35138 3.66872 6.17942 3.66872 6.0001C3.66872 5.82077 3.73895 5.64877 3.86396 5.52197C3.98898 5.39517 4.15853 5.32392 4.33532 5.32392H4.33424ZM4.33424 7.35052H7.66256C7.83888 7.35052 8.00797 7.42157 8.13265 7.54803C8.25732 7.67449 8.32736 7.84598 8.32736 8.02482C8.32736 8.20366 8.25732 8.37519 8.13265 8.50165C8.00797 8.62811 7.83888 8.69916 7.66256 8.69916H4.33532C4.15901 8.69916 3.98991 8.62811 3.86524 8.50165C3.74056 8.37519 3.67052 8.20366 3.67052 8.02482C3.67052 7.84598 3.74056 7.67449 3.86524 7.54803C3.98991 7.42157 4.15901 7.35052 4.33532 7.35052H4.33424Z" fill="#A4E90E"/>
</svg>
