<svg width="12" height="12" viewBox="0 0 12 12" fill="none" xmlns="http://www.w3.org/2000/svg">
<path fill-rule="evenodd" clip-rule="evenodd" d="M11.9972 7.6287C12.0123 8.4942 11.6881 9.33035 11.0961 9.9532C10.504 10.5761 9.69257 10.9346 8.84016 10.95H3.59241C2.71017 10.9164 1.86822 10.5663 1.21616 9.96192C0.564097 9.35757 0.144132 8.53814 0.0308571 7.64912C-0.0824178 6.76011 0.11834 5.8591 0.597463 5.10616C1.07659 4.35323 1.80305 3.79711 2.64781 3.53659C2.98359 2.80132 3.51753 2.17759 4.18785 1.73755C4.85816 1.29752 5.63747 1.05916 6.43564 1.05005C7.47983 1.07099 8.48088 1.47676 9.25215 2.19177C10.0234 2.90678 10.5123 3.8822 10.6275 4.93614C11.0507 5.24179 11.396 5.64552 11.6347 6.11381C11.8734 6.5821 11.9986 7.10141 12 7.6287H11.9972ZM9.57485 6.03021L9.1998 5.82419L9.17741 5.39439C9.16611 4.65607 8.87424 3.95075 8.36278 3.4258C7.85132 2.90086 7.15984 2.5969 6.43284 2.57747C5.86958 2.58636 5.32269 2.77117 4.8665 3.10675C4.41031 3.44232 4.06696 3.91238 3.88314 4.45305L3.7257 4.87223L3.29049 4.9397C2.75733 5.04715 2.28096 5.34808 1.95046 5.78625C1.61996 6.22442 1.45796 6.76984 1.49474 7.32048C1.53153 7.87113 1.76457 8.38929 2.15032 8.77814C2.53606 9.16698 3.04809 9.39988 3.59066 9.43325H8.83841C9.29252 9.41684 9.72176 9.21854 10.0323 8.88173C10.3429 8.54492 10.5094 8.09697 10.4957 7.63581C10.5005 7.30845 10.4174 6.98598 10.2551 6.70305C10.0929 6.42013 9.85766 6.18747 9.57485 6.03021Z" fill="#33BFFC"/>
</svg>
